:FULLY-SPECIFIED
:FORCE-ALL-JOINTS-BE-3DOF
:DEGREES
211
root 8.33032 16.5057 -7.87084 8.02144 0.0992145 -5.76998
lfemur -43.9644 -3.02121 -10.4458
ltibia 20.6764 0 0
lfoot -17.0544 15.5005 0
ltoes -15.0271 0 0
rfemur 10.2027 5.52875 31.4129
rtibia 1.90833e-14 0 0
rfoot -12.3628 5.48057 0
rtoes -7.94378 0 0
lowerback -7.13788 2.38145 3.2314
upperback -0.881891 2.79721 3.76278
thorax 3.05436 1.41186 2.3506
lowerneck -16.0094 -6.48103 -14.5454
upperneck 14.841 -8.22255 14.9955
head 8.51353 -3.37244 6.49326
lclavicle -4.37326e-14 -1.11319e-14 0
lhumerus -50.7834 -11.0215 97.2238
lradius 26.7843 0 0
lwrist 9.87187 0 0
lhand -12.6626 -24.8796 0
lfingers 7.12502 0 0
lthumb 13.4184 4.66819 0
rclavicle -4.37326e-14 -1.11319e-14 0
rhumerus -36.9024 12.3182 -82.4905
rradius 53.1376 0 0
rwrist -27.207 0 0
rhand -32.5618 -28.7367 0
rfingers 7.12502 0 0
rthumb -5.79114 -58.6376 0
212
root 8.34712 16.4909 -7.7178 8.11977 -0.109508 -5.88241
lfemur -44.3045 -2.91984 -10.376
ltibia 20.3935 0 0
lfoot -16.6013 15.4243 0
ltoes -15.1604 0 0
rfemur 10.9964 5.59101 31.451
rtibia -0.620219 0 0
rfoot -12.0527 5.6294 0
rtoes -7.86527 0 0
lowerback -7.25883 2.40467 3.29239
upperback -0.927721 2.81964 3.76689
thorax 3.07633 1.42354 2.32693
lowerneck -15.9525 -6.43725 -14.5272
upperneck 14.8745 -8.17728 14.995
head 8.50631 -3.35242 6.4986
lclavicle -4.3983e-14 -1.10305e-14 0
lhumerus -50.9251 -10.9311 97.1474
lradius 26.5675 0 0
lwrist 9.54133 0 0
lhand -12.4801 -24.8914 0
lfingers 7.12502 0 0
lthumb 13.5942 4.64366 0
rclavicle -4.3983e-14 -1.10305e-14 0
rhumerus -37.121 12.4439 -82.7515
rradius 53.2313 0 0
rwrist -27.2257 0 0
rhand -32.4874 -28.93 0
rfingers 7.12502 0 0
rthumb -5.71929 -58.8328 0
213
root 8.36456 16.4735 -7.56195 8.23477 -0.320002 -6.00298
lfemur -44.6802 -2.70829 -10.358
ltibia 20.3244 0 0
lfoot -16.0076 15.2948 0
ltoes -15.25 0 0
rfemur 11.7913 5.66805 31.4909
rtibia -1.22485 0 0
rfoot -11.7845 5.79102 0
rtoes -7.82436 0 0
lowerback -7.38964 2.42764 3.35439
upperback -0.972832 2.84113 3.76976
thorax 3.10466 1.43461 2.30193
lowerneck -15.9123 -6.39676 -14.5017
upperneck 14.907 -8.13691 14.998
head 8.50237 -3.3332 6.50291
lclavicle -4.36738e-14 -1.07576e-14 0
lhumerus -51.0641 -10.8152 97.0382
lradius 26.3456 0 0
lwrist 9.19062 0 0
lhand -12.2795 -24.8989 0
lfingers 7.12502 0 0
lthumb 13.7875 4.62184 0
rclavicle -4.36738e-14 -1.07576e-14 0
rhumerus -37.3529 12.5564 -83.0263
rradius 53.3018 0 0
rwrist -27.2141 0 0
rhand -32.4043 -29.1702 0
rfingers 7.12502 0 0
rthumb -5.63909 -59.075 0
214
root 8.38264 16.4536 -7.40354 8.36433 -0.531927 -6.12953
lfemur -45.0853 -2.39695 -10.3888
ltibia 20.4506 0 0
lfoot -15.2891 15.117 0
ltoes -15.2975 0 0
rfemur 12.5821 5.75729 31.5304
rtibia -1.80656 0 0
rfoot -11.5526 5.96267 0
rtoes -7.81902 0 0
lowerback -7.52853 2.45019 3.41631
upperback -1.01723 2.86161 3.77121
thorax 3.13832 1.44507 2.2759
lowerneck -15.8881 -6.35932 -14.4696
upperneck 14.939 -8.10099 15.0039
head 8.50161 -3.31469 6.50624
lclavicle -4.28575e-14 -1.03321e-14 0
lhumerus -51.1986 -10.6765 96.8988
lradius 26.1196 0 0
lwrist 8.82188 0 0
lhand -12.0629 -24.9022 0
lfingers 7.12502 0 0
lthumb 13.9961 4.60281 0
rclavicle -4.28575e-14 -1.03321e-14 0
rhumerus -37.597 12.6562 -83.3126
rradius 53.3491 0 0
rwrist -27.1746 0 0
rhand -32.3139 -29.4516 0
rfingers 7.12502 0 0
rthumb -5.55178 -59.3585 0
215
root 8.40136 16.4318 -7.2428 8.50635 -0.744942 -6.25994
lfemur -45.5137 -1.9962 -10.4653
ltibia 20.7539 0 0
lfoot -14.4618 14.8956 0
ltoes -15.3047 0 0
rfemur 13.3636 5.85617 31.5674
rtibia -2.35802 0 0
rfoot -11.3514 6.1416 0
rtoes -7.84719 0 0
lowerback -7.67372 2.47217 3.47708
upperback -1.06092 2.88105 3.77105
thorax 3.17626 1.45489 2.24916
lowerneck -15.8788 -6.32469 -14.4317
upperneck 14.9707 -8.06906 15.0125
head 8.50395 -3.2968 6.50862
lclavicle -4.1587e-14 -9.77284e-15 0
lhumerus -51.3272 -10.5176 96.7321
lradius 25.8903 0 0
lwrist 8.43723 0 0
lhand -11.8327 -24.9015 0
lfingers 7.12502 0 0
lthumb 14.2178 4.58666 0
rclavicle -4.1587e-14 -9.77284e-15 0
rhumerus -37.8516 12.7434 -83.6082
rradius 53.3735 0 0
rwrist -27.1094 0 0
rhand -32.2174 -29.7683 0
rfingers 7.12502 0 0
rthumb -5.45859 -59.6775 0
216
root 8.42072 16.4084 -7.07998 8.65871 -0.958704 -6.39205
lfemur -45.9591 -1.51644 -10.5844
ltibia 21.2158 0 0
lfoot -13.5417 14.6353 0
ltoes -15.2734 0 0
rfemur 14.1305 5.96212 31.5996
rtibia -2.8719 0 0
rfoot -11.1749 6.32504 0
rtoes -7.90684 0 0
lowerback -7.82343 2.49341 3.53562
upperback -1.1039 2.89938 3.76908
thorax 3.21745 1.46406 2.222
lowerneck -15.8836 -6.29266 -14.3887
upperneck 15.0026 -8.04068 15.023
head 8.50929 -3.27946 6.5101
lclavicle -3.99148e-14 -9.09855e-15 0
lhumerus -51.4483 -10.3411 96.5409
lradius 25.6588 0 0
lwrist 8.03883 0 0
lhand -11.5911 -24.8967 0
lfingers 7.12502 0 0
lthumb 14.4505 4.57347 0
rclavicle -3.99148e-14 -9.09855e-15 0
rhumerus -38.1154 12.8185 -83.911
rradius 53.3753 0 0
rwrist -27.021 0 0
rhand -32.116 -30.1146 0
rfingers 7.12502 0 0
rthumb -5.36073 -60.0262 0
